<?xml version="1.0" encoding="UTF-8"?>
<svg id="Calque_2" data-name="Calque 2" xmlns="http://www.w3.org/2000/svg" viewBox="0 0 113.01 191.53">
  <defs>
    <style>
      .cls-1 {
        fill: #fff;
      }
    </style>
  </defs>
  <g id="Calque_1-2" data-name="Calque 1">
    <path class="cls-1" d="M15.12,112.84l-1.05,76.28c-.26.94-10.23,2.39-11.82,2.4-1.2.01-1.48-.26-2.09-1.25L0,15.22c.02-.87.29-1.48.99-2.01,1.7-1.28,20.39-2.79,23.53-2.48,7,.69,13.89,4.23,15.26,11.73-1.68,23.75,3.03,52.65.26,75.79-1.4,11.65-15.76,12.87-24.92,14.58Z"/>
    <path class="cls-1" d="M88.01,2.74l1,12.99c-3.83,1.23-14.23-.6-14.99,3.51l.06,162.89-13.05,2.61-1.01-163.49c0-4.75-10.61.11-12.03-.94-.83-.62-3.46-11.83-.32-12.41l40.34-5.15Z"/>
    <path class="cls-1" d="M101.01,179.74l-1.04-177.44,12.59-2.3.46,176.24c-.7,3.75-8.75,2.87-12,3.5Z"/>
  </g>
</svg>